<?xml version="1.0" encoding="UTF-8"?>
<svg id="header" xmlns="http://www.w3.org/2000/svg" viewBox="0 0 149.12 124">
  <defs>
    <style>
      .cls-1 {
        stroke-width: 2.31px;
      }

      .cls-1, .cls-2, .cls-3 {
        stroke: #231f20;
      }

      .cls-1, .cls-3 {
        fill: none;
        stroke-linecap: round;
        stroke-linejoin: round;
      }

      .cls-4 {
        fill: #231f20;
      }

      .cls-2, .cls-3 {
        stroke-width: 4px;
      }

      .cls-2, .cls-5 {
        fill: #fff;
      }

      .cls-6 {
        fill: #f9a51a;
      }
    </style>
  </defs>
  <g>
    <polygon class="cls-6" points="74.96 107.75 12.53 107.75 74.96 14.66 137.4 107.75 74.96 107.75"/>
    <g>
      <line class="cls-3" x1="8.5" y1="114.22" x2="80.57" y2="6.92"/>
      <line class="cls-3" x1="69.86" y1="6.92" x2="141.42" y2="114.22"/>
    </g>
    <line class="cls-3" x1="4.45" y1="107.75" x2="145.47" y2="107.75"/>
    <path class="cls-2" d="M74.98,52.58c11.24,0,20.41,9.12,20.41,20.28s-9.17,20.28-20.41,20.28-20.44-9.12-20.44-20.28,9.2-20.28,20.44-20.28h0Z"/>
  </g>
  <g>
    <path class="cls-4" d="M143.94,60.61H4.91v22.59h139.03v-22.59h0ZM143.94,60.61h-2.41,2.41ZM143.94,83.2h-2.41,2.41Z"/>
    <g>
      <g>
        <g>
          <path class="cls-1" d="M4.83,52.83v35.8"/>
          <path class="cls-1" d="M143.94,53.12v35.44"/>
        </g>
        <g>
          <path class="cls-5" d="M15.72,64.56h2.92l3.76,14.26h-2.38l-.88-3.5h-4.18l-.92,3.5h-2.38l4.06-14.26ZM18.76,73.51l-1.64-7.03h-.04l-1.7,7.03h3.38Z"/>
          <path class="cls-5" d="M25.41,64.56h5.04c2,0,3.62,1,3.62,3.67,0,1.84-.82,3.26-2.38,3.5v.04c1.42.14,2.16.92,2.24,2.92.02.92.04,2.04.08,2.89.04.7.38,1.04.68,1.24h-2.58c-.22-.26-.32-.7-.38-1.26-.08-.86-.06-1.66-.1-2.69-.04-1.56-.52-2.24-2.08-2.24h-1.86v6.19h-2.28v-14.26ZM29.51,70.91c1.46,0,2.28-.88,2.28-2.31,0-1.52-.66-2.32-2.16-2.32h-1.94v4.63h1.82Z"/>
          <path class="cls-5" d="M44.78,78.62c-.58.34-1.34.47-2.24.47-3.28,0-4.72-2.31-4.72-7.41s1.44-7.41,4.72-7.41,4.72,2.32,4.72,7.41c0,2.64-.48,4.61-1.12,5.65l1.46,1.54-1.36,1.22-1.46-1.48ZM43.58,74.89l.94.94c.32-.86.46-2.2.46-4.19,0-4.79-1.08-5.63-2.44-5.63s-2.44.84-2.44,5.63,1.08,5.75,2.44,5.75c.3,0,.56-.04.82-.14l-1.08-1.06,1.3-1.29Z"/>
          <path class="cls-5" d="M53.39,64.56v10.22c0,1.8.72,2.6,2.1,2.6s2.08-.79,2.08-2.6v-10.22h2.28v10.04c0,3.29-1.64,4.49-4.36,4.49s-4.38-1.2-4.38-4.49v-10.04h2.28Z"/>
          <path class="cls-5" d="M63.95,64.56h2.28v14.26h-2.28v-14.26Z"/>
          <path class="cls-5" d="M72.83,66.48h-3.4v-1.91h9.02v1.91h-3.34v12.35h-2.28v-12.35Z"/>
          <path class="cls-5" d="M81.76,64.56h7.72v1.91h-5.44v3.96h5.12v1.92h-5.12v4.55h5.6v1.92h-7.88v-14.26Z"/>
          <path class="cls-5" d="M102.18,73.71v.3c0,2.58-1.04,5.09-4.4,5.09-3.6,0-4.72-2.31-4.72-7.41s1.12-7.41,4.74-7.41c4.06,0,4.3,3,4.3,4.47v.26h-2.28v-.24c0-1.32-.4-2.83-2.04-2.77-1.68,0-2.44,1.04-2.44,5.63s.76,5.75,2.44,5.75c1.9,0,2.12-2.12,2.12-3.43v-.24h2.28Z"/>
          <path class="cls-5" d="M108.13,66.48h-3.4v-1.91h9.02v1.91h-3.34v12.35h-2.28v-12.35Z"/>
          <path class="cls-5" d="M116.12,71.69c0-5.09,1.44-7.41,4.72-7.41s4.72,2.32,4.72,7.41-1.44,7.41-4.72,7.41-4.72-2.31-4.72-7.41ZM123.28,71.63c0-4.79-1.08-5.63-2.44-5.63s-2.44.84-2.44,5.63,1.08,5.75,2.44,5.75,2.44-.83,2.44-5.75Z"/>
          <path class="cls-5" d="M131.35,74.41v.36c0,1.74.76,2.61,2.34,2.61,1.44,0,2.16-1.02,2.16-2.08,0-1.5-.76-2.15-2.04-2.53l-1.56-.54c-2.08-.79-2.98-1.88-2.98-3.91,0-2.59,1.76-4.03,4.44-4.03,3.66,0,4.04,2.28,4.04,3.76v.32h-2.28v-.3c0-1.3-.58-2.06-2-2.06-.98,0-1.92.54-1.92,2.06,0,1.22.62,1.84,2.14,2.42l1.54.56c2.02.72,2.9,1.82,2.9,3.78,0,3.04-1.84,4.29-4.72,4.29-3.54,0-4.34-2.35-4.34-4.35v-.34h2.28Z"/>
        </g>
      </g>
      <line class="cls-1" x1="153.59" y1="60" x2="-5.98" y2="60"/>
      <line class="cls-1" x1="154.55" y1="83.79" x2="-5.98" y2="83.79"/>
    </g>
  </g>
</svg>