<?xml version="1.0" encoding="UTF-8"?>
<svg xmlns="http://www.w3.org/2000/svg" xmlns:xlink="http://www.w3.org/1999/xlink" viewBox="0 0 539.57 270.17">
  <defs>
    <style>
      .cls-1, .cls-2, .cls-3, .cls-4 {
        fill: none;
      }

      .cls-5 {
        filter: url(#drop-shadow-1);
      }

      .cls-6 {
        fill: #231f20;
      }

      .cls-2 {
        stroke-width: 1px;
      }

      .cls-2, .cls-7, .cls-3 {
        stroke: #231f20;
      }

      .cls-7, .cls-3 {
        stroke-width: 4.59px;
      }

      .cls-7, .cls-8 {
        fill: #fff;
      }

      .cls-3 {
        stroke-linecap: round;
        stroke-linejoin: round;
      }

      .cls-9 {
        clip-path: url(#clippath-1);
      }

      .cls-10 {
        fill: #f9a51a;
      }

      .cls-11 {
        clip-path: url(#clippath);
      }

      .cls-4 {
        stroke: #fff;
      }
    </style>
    <symbol id="New_Symbol_2" data-name="New Symbol 2" viewBox="0 0 221.11 174.77">
      <line class="cls-4" x1="220.8" y1=".39" x2=".31" y2="174.38"/>
    </symbol>
    <clipPath id="clippath">
      <rect class="cls-1" x="580.79" y="108.86" width="1024" height="150"/>
    </clipPath>
    <clipPath id="clippath-1">
      <rect class="cls-1" x="580.79" y="-76.1" width="1024" height="138.95"/>
    </clipPath>
    <filter id="drop-shadow-1" x="-2.3" y=".69" width="544.16" height="269.37" filterUnits="userSpaceOnUse">
      <feOffset dx="2" dy="5"/>
      <feGaussianBlur result="blur" stdDeviation="5"/>
      <feFlood flood-color="#000" flood-opacity=".35"/>
      <feComposite in2="blur" operator="in"/>
      <feComposite in="SourceGraphic"/>
    </filter>
  </defs>
  <g id="banner">
    <g class="cls-11">
      <rect class="cls-8" x="455.79" y="101.9" width="361" height="160"/>
    </g>
  </g>
  <g id="header">
    <g class="cls-9">
      <g>
        <use width="221.11" height="174.77" transform="translate(408.61 -103.38)" xlink:href="#New_Symbol_2"/>
        <use width="221.11" height="174.77" transform="translate(416.11 -103.38)" xlink:href="#New_Symbol_2"/>
        <use width="221.11" height="174.77" transform="translate(423.61 -103.38)" xlink:href="#New_Symbol_2"/>
        <use width="221.11" height="174.77" transform="translate(431.11 -103.38)" xlink:href="#New_Symbol_2"/>
        <use width="221.11" height="174.77" transform="translate(438.61 -103.38)" xlink:href="#New_Symbol_2"/>
        <use width="221.11" height="174.77" transform="translate(446.11 -103.38)" xlink:href="#New_Symbol_2"/>
        <use width="221.11" height="174.77" transform="translate(453.61 -103.38)" xlink:href="#New_Symbol_2"/>
        <use width="221.11" height="174.77" transform="translate(461.11 -103.38)" xlink:href="#New_Symbol_2"/>
        <use width="221.11" height="174.77" transform="translate(468.61 -103.38)" xlink:href="#New_Symbol_2"/>
        <use width="221.11" height="174.77" transform="translate(476.11 -103.38)" xlink:href="#New_Symbol_2"/>
        <use width="221.11" height="174.77" transform="translate(483.61 -103.38)" xlink:href="#New_Symbol_2"/>
        <use width="221.11" height="174.77" transform="translate(491.11 -103.38)" xlink:href="#New_Symbol_2"/>
        <use width="221.11" height="174.77" transform="translate(498.61 -103.38)" xlink:href="#New_Symbol_2"/>
        <use width="221.11" height="174.77" transform="translate(506.11 -103.38)" xlink:href="#New_Symbol_2"/>
        <use width="221.11" height="174.77" transform="translate(513.61 -103.38)" xlink:href="#New_Symbol_2"/>
        <use width="221.11" height="174.77" transform="translate(521.11 -103.38)" xlink:href="#New_Symbol_2"/>
        <use width="221.11" height="174.77" transform="translate(528.61 -103.38)" xlink:href="#New_Symbol_2"/>
        <use width="221.11" height="174.77" transform="translate(536.11 -103.38)" xlink:href="#New_Symbol_2"/>
      </g>
    </g>
    <g class="cls-5">
      <g>
        <polygon class="cls-10" points="269.78 251.82 115.7 251.82 269.78 22.08 423.86 251.82 269.78 251.82"/>
        <g>
          <line class="cls-3" x1="105.78" y1="267.77" x2="283.63" y2="2.99"/>
          <line class="cls-3" x1="257.19" y1="2.99" x2="433.79" y2="267.77"/>
        </g>
        <line class="cls-3" x1="95.78" y1="251.82" x2="443.78" y2="251.82"/>
        <path class="cls-7" d="M269.82,115.65c27.74,0,50.37,22.49,50.37,50.04s-22.63,50.04-50.37,50.04-50.44-22.5-50.44-50.04,22.69-50.04,50.44-50.04h0Z"/>
      </g>
      <g>
        <g>
          <g>
            <g>
              <path class="cls-8" d="M21.2,143.14h498.64v41.66H21.2v-41.66h0ZM21.2,129.36v65.28-65.28h0ZM21.2,143.14h6.05-6.05ZM21.2,184.8h6.05-6.05Z"/>
              <path class="cls-3" d="M21.2,129.36v65.28"/>
            </g>
            <g>
              <path class="cls-6" d="M519.84,143.54h-222.87v41.19h222.87v-41.19h0ZM519.84,129.9v64.61-64.61h0ZM519.84,143.54h-3.87,3.87ZM519.84,184.73h-3.87,3.87Z"/>
              <path class="cls-3" d="M519.84,143.54h-222.87v41.19h222.87v-41.19h0ZM519.84,129.9v64.61"/>
            </g>
            <g>
              <path class="cls-6" d="M280.53,169.62v-1.59c.33,0,.66-.07,1-.07.2,0,.73-.2,1.39-.46.4-.2.74-.27,1.01-.33.53-.07,1.06-.07,1.59-.07s.93.07,1.26.13l-1.66.8c-.6.33-1.4.67-2.33,1-1,.39-1.73.59-2.26.59h0ZM280.53,166.24v-1.53c.2-.07.4-.21.6-.34.13-.07.53-.47,1.2-1.06.2-.2.27-.39.2-.6-.14-.47-.46-.74-.99-.74-.27,0-.6.13-1,.26v-1.59c.07,0,.13,0,.2-.07.33-.07.59-.13.93-.13.66,0,1.2.13,1.6.4.53.34.72.73.72,1.33v.33c-.06.2-.06.26-.06.41-.07.66-.47,1.32-1.14,1.99-.6.54-1.26,1-2,1.27-.06.07-.19.07-.26.07ZM280.53,160.64v1.59s-.08.07-.14.07c-.41.33-1.06.93-1.87,1.79l.14,1.34c.66-.2,1.32-.41,1.86-.73v1.53c-.4.19-.93.26-1.46.33,0,.41.13.73.4,1,.26.33.66.47,1.06.47h0v1.59c-.08.07-.14.07-.2.07-.47,0-.86-.13-1.26-.4-.27-.13-.74-.46-1.4-.99-.07,0-.2-.13-.47-.34l-3.26.27h0v-1.13l3.12-.86c-.13-.34-.13-.67-.13-.93,0-1.34.6-2.54,1.86-3.66.4-.41,1-.67,1.74-1h0ZM273.94,164.23l.39-.72-.39-.07v.79ZM273.94,163.44v.79l-.34.74h-3.39c-.4,0-.66.14-.87.34l-.4.39c-.13.14-.19.26-.19.47v.26l-.2,2.46h-1l-.33-1.99c-.34,0-.87.13-1.67.33-.4.13-.66.27-.8.33-.13.06-.33.27-.6.53l-.46-.6v.33c.06-.07.13-.14.2-.27-.07,0-.13-.13-.2-.2v-.33l1.73-1.33,1.27-.74c.46-.33.74-.66.86-1.12.27-.8.41-1.33.47-1.6.2-.66.33-1.2.4-1.66.13-1.33.73-2.72,1.66-4.19.34-.53.87-1.06,1.47-1.66l.47.68c-.8.59-1.33,1.46-1.73,2.65-.13.47-.2.87-.2,1.33v.4l-.2,3.27c.4,0,1.27.06,2.67.26l1.39.13h0ZM273.94,167.09l-.34.13.34,1v-1.13h0ZM263.7,166.9h.06c0-.07-.06-.07-.06-.07v.07ZM263.7,166.83v.07c-.2.07-.34.13-.54.13-.26,0-.53-.06-.86-.2-.93-.46-1.59-.8-2.06-1.13-1.27-.6-2.26-.87-3.13-.87h-.67l-1.45.8-1.53-.93c-.53.19-.99.4-1.4.73-.33.33-.6.52-.8.66-.46.4-.8.59-1.06.73,0,.07-.06.07-.06.14v.13l.52.2-.52.53h0v-.07l.73.27,1.73-1.27c0,.86.4,1.33,1.19,1.46.34,0,.6-.06.8-.2.66-.67,1.06-1,1.13-1.06.47-.34.93-.54,1.39-.54.27,0,.47,0,.8.07.8,1.26,2.21,1.86,4.13,1.86.67,0,1.12-.13,1.52-.4q.08-.07.14-.13v-.33l-.2-.33.2-.13v.33c-.07-.07-.07-.2-.07-.33s0-.13.07-.2h0ZM250.13,166.97v.13l-.48-.13c-.26.06-.59.06-1.06.06-.54,0-.93,0-1.21-.13-.46-.28-.8-.6-.99-1.06l.6-1.74c.26-.33.39-.66.39-.92,0-.47-.13-.73-.46-1-.27-.2-.6-.4-.99-.53-.48-.2-.8-.27-1.14-.27-.59,0-1.39.27-2.26.73v2.8c.47-.19.94-.27,1.47-.27v1l-1.47.93v1.8c.27-.13.54-.27.73-.47l1.94-1.12c.19.53.6.92,1.06,1.27.27.13.74.2,1.34.2.07,0,.53,0,1.39-.06.54-.07.94-.13,1.14-.33v-.07l-.61-.13c.2-.26.34-.53.61-.66ZM242.53,162.1v2.8c-.33.2-.66.41-.99.66-.13.2-.34.4-.47.73l1,.6.46-.34v1.8c-.33.13-.66.2-1.07.2-.59,0-1.12-.2-1.65-.54-.54-.34-.87-.73-1-1.27-.07-.2-.13-.47-.13-.6,0-.2,0-.33.06-.33l.34-1c.13-.33.66-.8,1.46-1.39.54-.39,1.13-.8,1.67-1.13.13-.07.2-.13.33-.2h0ZM184.31,168.63v-1.66c.26,0,.6,0,.93-.07.27,0,.74-.21,1.47-.47.34-.13.65-.26.93-.26.61-.06,1.13-.13,1.67-.13.47,0,.93.07,1.19.13l-1.6.87c-.66.33-1.46.66-2.32,1-1,.33-1.8.54-2.26.6h0ZM184.31,165.24v-1.54c.2-.13.39-.26.54-.39.19-.07.59-.39,1.26-1.07.2-.13.27-.33.2-.59-.14-.47-.47-.67-1-.67-.27,0-.6.07-.99.2v-1.53c.06-.06.14-.06.2-.06.26-.14.6-.2.86-.2.67,0,1.2.14,1.59.4.54.33.8.8.8,1.33,0,.07,0,.2-.07.34,0,.2-.07.33-.07.4-.07.66-.46,1.33-1.13,1.99-.6.53-1.27.99-1.99,1.27-.06.06-.13.06-.2.13h0ZM234.68,161.85l-1.19,1.79c-.07.13-.14.2-.14.26,0,.07.14.27.47.67l-.2.13-.13,1.19-.41.8.53.4-.6.27v.4l.33.27-.13.6.13.73-.13.46.27.27-.27.26.13.79-.33.81.47.33-.14.86.47.8c0,.27-.13.4-.33.4-.07,0-.2-.06-.33-.2-.14-.13-.2-.2-.2-.2l-.2-1.06-.4-.13v-.47l-.39-.87v-.53l-.2-.19.06-.39-.26-.07.14-.34h-.27c0-.13.08-.13.13-.13.07,0,.14,0,.2.06l-.25-.53.19-.46-.14-.4.26-.34-.26-.07c.14-.2.2-.4.2-.6l-.2-1.4.26-.66-.12-.13c-.07-.07-.14-.13-.14-.41-.05-.13-.13-.33-.27-.46l-.33.21c-.2.26-.4.39-.66.53-.27.06-.67.13-1.21.13-.59,0-.99.07-1.2.26l-.34.26-1.27.27-.6.27h-.8l-.53.33-.8-.06-.46.27-.47-.13-.33.34c-.14,0-.33,0-.47-.06-.19-.07-.33-.07-.39-.07-.27,0-.47.07-.6.19-.14-.06-.27-.13-.41-.13-.07,0-.13,0-.2.06l-.13.06-.2-.06-.53.26-.53-.39-.46.26-1.14-.4-.2.14-.4-.21h-.86l-.47-.27-.73-.33-1.39-1.34-.13-1-.4-.46.26-.54-.33-.26.19-.2-.27-.4.14-.13.46-.07v-.4l.32-.53.07.12c.27-.26.47-.59.47-.86l-.07-.21c.54-.06.8-.46.94-1.19l-.27.47c.2-.6.46-.86.73-.86h.06l-.13.2c.2-.07.34-.27.34-.41v-.13l.39-.06-.07.13.2-.07.06-.46.21.13v-.18h.4l.27-.21c.07-.07.2-.27.4-.6l.73-.13c.46-.47.72-.72.72-.87l.53-.19.2-.27.66-.07.54-.53c.39-.06.8-.13,1.13-.34l.07-.2.06.07.34-.19-.06-.07c.19-.13.4-.2.46-.2,0,0,.14,0,.27.07.2-.4.46-.6.73-.6h.74c.19,0,.46-.2.86-.53l.27.07.6-.33.28.07c.13-.13.33-.2.66-.27.26-.06.39-.13.39-.2l.21-.07h.93l.13-.26.46.07.73-.13.06-.13.6.27h.53l.61.46c.26.07.53.2.93.41-.13.53-.54.8-1.32.93l-1.07-.53-.33.13-.61-.2-.4.2-.59-.13-1.07.47-.4-.2c-.74.2-1.2.33-1.33.4-.14.06-.19.13-.27.26-.33.19-.6.33-.86.33-.08,0-.15,0-.27-.07-1.67.87-2.6,1.27-2.87,1.2l-.14.33h-.27l-.34.47-.53.07c-.26.33-.66.6-1.12.8-.47.2-.8.33-.86.47l-.94.79-.53.4-.6.73-1.13.87v.72l-.19.14-.6,1.53v.6c0,.19.13.47.33.66.2.13.34.33.34.53,0,.13,0,.21-.07.21l.46.46.93.47,1,.26h1.2l1.47.27.2-.07.26.07,2.07-.13c.6-.27,1.46-.34,2.52-.4l-.07-.13,1.73-.13v-.13l1.93-.4c.2-.21.66-.41,1.32-.48.67-.06,1.13-.13,1.47-.19l-.06-.27h.2v-.13l.54-.13-.14-.33.41-.41v-.59c-.19-.07-.26-.07-.26-.14.07-.13.13-.33.13-.54s-.06-.4-.13-.6h1.06l.33.27h.34l.53.6.46.07ZM184.31,159.64v1.53c-.07.06-.14.06-.21.06-.41.41-1,.94-1.86,1.81l.2,1.33c.67-.2,1.26-.4,1.87-.67v1.54c-.48.13-.94.2-1.53.33,0,.34.13.67.39,1,.34.27.66.41,1.07.41h.07v1.66h-.27c-.4,0-.87-.14-1.27-.34-.27-.2-.74-.54-1.4-1-.07-.07-.2-.2-.47-.39l-3.07.26v-1.13l2.93-.86c-.07-.33-.13-.59-.13-.87,0-1.39.66-2.59,1.86-3.73.47-.33,1.07-.66,1.8-.93h0ZM177.85,154.05v-1.93c.34.07.53.4.53.87,0,.2-.06.39-.33.53l-.21.53ZM177.85,152.12v1.93l-.72,1.73c-.15.27-.28.66-.41,1.26-.2.74-.53,2.07-1,3.93-.07.07-.2.47-.47,1.13,0,.47-.06.94-.13,1.47l-.2,2.27,1.99-.14.61.73c-.27.2-.87.4-1.8.67-.07,0-.34.07-.66.13-.13.07-.27.13-.4.13-.2,0-.4-.07-.67-.13-.6-.19-.93-.26-.99-.26v-4.26c-1.34,1.46-3.13,2.79-5.39,3.99-.14.07-.27.13-.39.21v-1.46c.06,0,.06-.07.12-.07.86-.54,1.6-1.2,2.13-1.86-.07,0-.13,0-.26-.07h-.53c-.13.07-.2.07-.27.07-.47.06-.8.13-1.19.26v-1.79c.33-.13.72-.2,1.05-.26.34,0,.54-.07.67-.07.33,0,.66.07,1.12.13l.33.93c1.4-.67,2.53-1.81,3.47-3.4.19-.33.39-.86.74-1.59.19-.6.33-1.21.52-1.73.34-1.2.8-2.2,1.26-2.86.08,0,.34-.39.87-1,.07-.07.13-.07.27-.07s.26,0,.33.07h0ZM177.85,166.03l-.53.13.4,1h.13v-1.13ZM167.21,161.97v1.79c-.27.13-.54.27-.74.4-.6,0-1.06.26-1.4.8-.07.2-.14.34-.14.48s0,.26.07.4h.47c.66,0,1.19-.14,1.73-.4v1.46c-.74.33-1.53.46-2.47.46-.6,0-.92-.07-1.06-.07-.27-.13-.4-.39-.47-.87v-.66c0-.6.13-1.06.47-1.47.14-.13.46-.46,1.12-.99.8-.67,1.6-1.13,2.41-1.33h0ZM125.21,169.23v-1.67h.93c.26-.06.73-.2,1.46-.53.33-.13.67-.2.93-.27.6-.07,1.13-.07,1.66-.07.47,0,.93,0,1.19.13l-1.6.8c-.65.33-1.46.67-2.38,1.01-.94.33-1.73.52-2.2.59h0ZM125.21,165.84v-1.54c.2-.13.39-.2.53-.33.2-.13.6-.46,1.27-1.06.19-.2.25-.41.19-.6-.13-.46-.47-.74-1-.74-.26,0-.6.07-1,.28v-1.6c.07,0,.13-.07.2-.07.27-.07.6-.13.86-.13.68,0,1.21.13,1.6.39.53.27.8.74.8,1.27,0,.14,0,.26-.07.39,0,.13-.06.27-.06.34-.07.73-.47,1.4-1.13,1.99-.6.6-1.27,1.01-2,1.33-.07,0-.13.07-.2.07h0ZM141.25,167.16c-.06.06-.39.26-.86.52-.46.27-.79.41-.93.41l-4.05.8h-.27c-.13.07-.2.07-.27.07-.66,0-1.32-.2-1.79-.53-.67-.4-.93-.93-.93-1.46s.2-1.01.6-1.41c.13-.06.33-.26.52-.53.28-.27,1.01-.8,2.2-1.59.07,0,.34-.13.87-.39.33-.21.54-.41.66-.6.06-.13,0-.21-.26-.21-.13,0-.27,0-.53.07h-.53c-.34,0-.54-.07-.6-.2l-1.99-.19-1.27-.34-.2-.93,1.27-.14c.27.07.72.14,1.33.14.6.06,1,.13,1.33.13.28.06.74.12,1.34.26.66.07.99.14,1.12.2.19.21.39.41.6.54.2.2.33.33.33.4,0,.27-.21.59-.53.93-.2.14-.39.33-.72.59-.07.07-.54.27-1.47.74-.6.33-1,.67-1.27,1.07,0,.06-.13.2-.33.46-.26.41-.4.73-.4.94,0,.07,0,.13.07.13.13.39.13.59.19.59.06.2.27.26.46.26.13.14.27.14.47.14s.33,0,.47-.14c.06,0,.46-.13,1.12-.33.06-.06.2-.13.34-.2l1.73-.27,1.25-.6c0,.06.2.19.74.47l.2.19ZM125.21,160.24v1.6c-.07,0-.13,0-.2.06-.4.33-1,.93-1.86,1.73l.19,1.32c.67-.13,1.27-.39,1.87-.66v1.54c-.47.13-.93.27-1.53.33,0,.4.13.74.4,1,.33.26.66.4,1.06.4h.07v1.67h-.27c-.4,0-.86-.07-1.26-.33-.27-.2-.74-.53-1.4-1-.07,0-.2-.13-.46-.33l-3.19.27-.14-.4h0c.07-.07.14-.13.21-.26-.14-.07-.21-.13-.21-.26v-.14l3.2-.93c-.07-.33-.14-.67-.14-.94,0-1.33.67-2.59,1.87-3.66.46-.4,1.06-.74,1.8-.99h0ZM118.49,166.5h0q.07,0,.07-.07c-.07,0-.07-.06-.07,0h0v.07ZM118.49,166.43v.07c-.2.06-.4.06-.6.06s-.47,0-.8-.13c-.93-.47-1.59-.8-2.05-1.12-1.27-.6-2.27-.94-3.13-.94h-.73l-1.39.87-1.54-.94c-.53.13-1,.41-1.39.73-.41.34-.66.53-.8.67-.46.33-.86.6-1.06.73h0v.27c.2,0,.47.07.6.13l-.6.33v.2l.66.2,1.74-1.19c0,.86.39,1.32,1.19,1.46.33,0,.54-.07.8-.27.67-.59,1-.94,1.13-1,.46-.4.93-.53,1.4-.53.2,0,.45,0,.8.07.8,1.19,2.2,1.86,4.13,1.86.66,0,1.12-.13,1.53-.4,0-.06.06-.06.13-.13h0l-.27-.6.27-.07v.14c-.07-.07-.07-.21-.07-.34,0-.06,0-.13.07-.13ZM104.98,166.43v.27h-.6c-.53,0-1.07,0-1.59.07-.34.07-.68.14-1.01.27-.74.33-1.19.47-1.46.53h-.92v1.67c.46-.07,1.26-.27,2.26-.59.86-.34,1.66-.67,2.33-1.01l1-.46v.2l-.66-.2c.2-.26.39-.54.66-.74h0ZM99.4,165.84v-1.54c.2-.13.39-.2.59-.33.14-.13.54-.46,1.21-1.06.2-.2.26-.41.2-.6-.14-.46-.47-.74-1-.74-.27,0-.6.07-1,.28v-1.6c.06,0,.12-.07.2-.07.27-.07.59-.13.86-.13.67,0,1.2.13,1.59.39.53.27.8.74.8,1.27,0,.14,0,.26-.06.39v.34c-.14.73-.54,1.4-1.21,1.99-.6.6-1.26,1.01-1.99,1.33-.07,0-.14.07-.2.07ZM99.4,160.24v1.6c-.07,0-.14,0-.2.06-.4.33-1,.93-1.86,1.73l.2,1.32c.66-.13,1.27-.39,1.87-.66v1.54c-.46.13-.94.27-1.54.33,0,.4.13.74.4,1,.34.26.68.4,1.07.4h.07v1.67h-.28c-.4,0-.86-.07-1.26-.33-.2-.2-.73-.53-1.39-1-.07,0-.2-.13-.47-.33l-3.13.19v-.99l.47-1.06c-.14.07-.27.07-.47.14v.86l2.99-.86c-.06-.33-.13-.67-.13-.94,0-1.33.66-2.59,1.87-3.66.46-.4,1.06-.74,1.8-.99ZM92.87,165.84v.86l-.46.13.39,1,.07-.07v-.99l-.13.27-1.26.59-1.47-.2c-.79-.13-1.6-.13-2.33-.13-.99-.13-1.66-.53-2.13-1.19-.27-.34-.33-.86-.33-1.67v-.2h-.73l-1.67,1.47c-1.12,1-2.46,1.86-3.92,2.6h-1.8l.21-.47c.39-1,.72-2.2.99-3.6l.33-1.86-.8-.13c-1.66.81-3.12,2.13-4.45,3.87-.47.59-.8,1.33-1.06,2.06-.2.2-.33.27-.41.33-.32.2-.59.27-.8.2-.13,0-.26-.13-.4-.4-.06,0-.06-.13-.13-.27.33-.73.6-1.33.73-1.86.27-1,.47-2.4.47-4.13v-1.26l-1.53.86-1.6,1.4c-1.19.99-2.19,1.79-3.05,2.4-1.07.66-2.6,1.53-4.53,2.39l-.2-.14v-.92l.86-.6h-.4c-.13.13-.26.2-.46.2v.13l.2-.07c1.73-.73,3.19-1.6,4.32-2.59.67-.6,1.4-1.2,2.07-1.87.86-.67,1.59-1.27,2.26-1.59l1.94-1.14c.2-.06.4-.13.67-.13.33,0,.59.06.86.26.06.07.2.14.26.27l.13,3.73,2.26-1.52,2.46-1.74c.27-.13.53-.2.8-.2.73,0,1.19.34,1.39.93.13.34.13.66.13,1.07v.53c0,.6-.13,1.33-.47,2.19-.06.27-.25.67-.53,1.2.2-.14.53-.33.94-.6,1.86-1.27,3.33-2.27,4.46-2.87,1-.8,1.74-1.19,2.13-1.19h.33c.34.06.67.13,1,.19.33.07.54.34.54.6,0,.33-.14.66-.33,1-.6.67-.94,1-.94,1.06-.06.26-.13.46-.13.67,0,.8.47,1.13,1.41,1.13.2,0,.66.13,1.39.33.33.13.6.2.86.2s.6-.07,1-.27c.27-.14.4-.2.6-.27ZM40.36,149.8c0,.26-.13.46-.33.66v-1.53c.19.2.33.54.33.87h0ZM60.87,166.37v.13l-.94.4.94.79v-.92l-1.07.8c-.8.6-1.6.87-2.4.87-.53,0-1.06-.14-1.66-.34-.8-.34-1.27-.53-1.47-.67-.86-.46-1.33-1.19-1.33-1.99,0-.54.14-1.14.34-1.67-.2.33-.4.6-.6.94-.65.99-1.46,1.72-2.46,2.2-.94.46-1.46.72-1.6.79l-1.33-.79c.39-.14.79-.4,1.26-.74.34-.33.73-.66,1.13-1,.34-.2.88-.67,1.68-1.33.4-.47.8-1,1.26-1.74l1.27-1.79,1.39-.2v.27c0,.12,0,.33-.13.6-.2.47-.26.74-.26.94,0,.06,0,.19.07.33v.33c0,.2-.07.53-.19.94-.15.39-.21.72-.21.92,0,.47.4,1.07,1.2,1.73.53.46,1.27.74,2.07.74.33,0,.66,0,.99-.07.2-.13.61-.2,1.34-.27.26-.06.53-.13.73-.19h0ZM40.04,180.34v-1.26h.4c1.06,0,1.86-.4,2.33-1.14.06,0,.2-.6.59-1.59.48-1.46.74-2.73.74-3.86,0-1.34-.32-2.93-1.06-4.8-.21-.46-.34-.72-.48-.99-.07-.13-.19-.33-.39-.59-.73.4-1.47.93-2.13,1.46v-2.4c.47-.33,1-.74,1.53-1.07,0,0-.07-.73-.26-2.25-.08-.87-.34-1.87-.74-3.13-.2-.47-.34-1-.53-1.53v-1.79h.13l1.47,2.58c.33.67.66,1.8.92,3.53.14.87.34,1.6.6,2.14l3.19-.73v1.12l-2.33,1c.2,0,.47,1.47.93,4.52.19,1.39.27,2.66.27,3.8,0,.46,0,.93-.07,1.39-.06,1.07-.19,1.81-.26,2.14-.2.6-.46,1.2-.93,1.79-.46.6-.93,1.06-1.47,1.33-.47.2-1.06.33-1.72.33h-.73ZM56.14,155.98c-.07.26-.2.47-.53.67-.27.13-.54.26-.8.26s-.46-.13-.46-.34c-.07-.33.07-.6.41-.86.25-.33.58-.48.93-.48s.46.2.46.54v.2ZM40.04,150.46c0,.06-.07.06-.07.06-.26.2-.6.33-.93.33l-.53-1.06.66-1.27c.34,0,.61.14.88.41h0v1.53h0ZM40.04,155.39v1.79c-.2-.47-.4-1-.53-1.54l.53-.25h0ZM40.04,165.17v2.4c-.27.27-.53.47-.8.73-1.06.99-1.86,1.93-2.33,2.73-.66,1-.93,2.06-.93,3.33,0,1.13.4,2.12,1.26,3.06.88.99,1.8,1.53,2.81,1.66v1.26c-1.27-.13-2.33-.47-3.13-.93-.8-.54-1.53-1.33-2.13-2.4-.54-.93-.8-1.86-.8-2.72,0-1.47.8-3.27,2.46-5.46,1.06-1.4,2.26-2.59,3.6-3.66Z"/>
              <path class="cls-2" d="M40.36,149.8c0,.33-.13.53-.4.73-.26.2-.6.33-.93.33l-.53-1.06.66-1.27c.34,0,.61.14.88.41.19.2.33.47.33.87h0ZM46.35,162.91v1.12l-2.33,1c.2,0,.47,1.47.93,4.52.19,1.39.27,2.66.27,3.8,0,.46,0,.93-.07,1.39-.06,1.07-.19,1.81-.26,2.14-.2.6-.46,1.2-.93,1.79-.46.6-.93,1.06-1.47,1.33-.47.2-1.06.33-1.72.33h-.67c-1.33-.13-2.33-.47-3.19-.93-.8-.54-1.53-1.33-2.13-2.4-.54-.93-.8-1.86-.8-2.72,0-1.47.8-3.27,2.46-5.46,1.47-1.86,3.12-3.46,5.13-4.73,0,0-.07-.73-.26-2.25-.08-.87-.34-1.87-.74-3.13-.34-1-.73-2-1.06-3.07l.66-.25,1.47,2.58c.33.67.66,1.8.92,3.53.14.87.34,1.6.6,2.14l3.19-.73h0ZM43.35,176.35c.48-1.46.74-2.73.74-3.86,0-1.34-.32-2.93-1.06-4.8-.21-.46-.34-.72-.48-.99-.07-.13-.19-.33-.39-.59-1,.59-2,1.33-2.93,2.19-1.06.99-1.86,1.93-2.33,2.73-.66,1-.93,2.06-.93,3.33,0,1.13.4,2.12,1.26,3.06,1,1.13,2.07,1.66,3.2,1.66,1.06,0,1.86-.4,2.33-1.14.06,0,.2-.6.59-1.59h0ZM56.14,155.98c-.07.26-.2.47-.53.67-.27.13-.54.26-.8.26s-.46-.13-.46-.34c-.07-.33.07-.6.41-.86.25-.33.58-.48.93-.48s.46.2.46.54v.2h0ZM61.73,166.16l-1.93,1.4c-.8.6-1.6.87-2.4.87-.53,0-1.06-.14-1.66-.34-.8-.34-1.27-.53-1.47-.67-.86-.46-1.33-1.19-1.33-1.99,0-.54.14-1.14.34-1.67-.2.33-.4.6-.6.94-.65.99-1.46,1.72-2.46,2.2-.94.46-1.46.72-1.6.79l-1.33-.79c.39-.14.79-.4,1.26-.74.34-.33.73-.66,1.13-1,.34-.2.88-.67,1.68-1.33.4-.47.8-1,1.26-1.74l1.27-1.79,1.39-.2v.27c0,.12,0,.33-.13.6-.2.47-.26.74-.26.94,0,.06,0,.19.07.33v.33c0,.2-.07.53-.19.94-.15.39-.21.72-.21.92,0,.47.4,1.07,1.2,1.73.53.46,1.27.74,2.07.74.33,0,.66,0,.99-.07.2-.13.61-.2,1.34-.27.59-.13,1-.19,1.19-.4h.4ZM93.34,165.7l-.6,1.33-1.26.59-1.47-.2c-.79-.13-1.6-.13-2.33-.13-.99-.13-1.66-.53-2.13-1.19-.27-.34-.33-.86-.33-1.67v-.2h-.73l-1.67,1.47c-1.12,1-2.46,1.86-3.92,2.6h-1.8l.21-.47c.39-1,.72-2.2.99-3.6l.33-1.86-.8-.13c-1.66.81-3.12,2.13-4.45,3.87-.47.59-.8,1.33-1.06,2.06-.2.2-.33.27-.41.33-.32.2-.59.27-.8.2-.13,0-.26-.13-.4-.4-.06,0-.06-.13-.13-.27.33-.73.6-1.33.73-1.86.27-1,.47-2.4.47-4.13v-1.26l-1.53.86-1.6,1.4c-1.19.99-2.19,1.79-3.05,2.4-1.07.66-2.6,1.53-4.53,2.39l-1.14-.93,1.14-.47c1.73-.73,3.19-1.6,4.32-2.59.67-.6,1.4-1.2,2.07-1.87.86-.67,1.59-1.27,2.26-1.59l1.94-1.14c.2-.06.4-.13.67-.13.33,0,.59.06.86.26.06.07.2.14.26.27l.13,3.73,2.26-1.52,2.46-1.74c.27-.13.53-.2.8-.2.73,0,1.19.34,1.39.93.13.34.13.66.13,1.07v.53c0,.6-.13,1.33-.47,2.19-.06.27-.25.67-.53,1.2.2-.14.53-.33.94-.6,1.86-1.27,3.33-2.27,4.46-2.87,1-.8,1.74-1.19,2.13-1.19h.33c.34.06.67.13,1,.19.33.07.54.34.54.6,0,.33-.14.66-.33,1-.6.67-.94,1-.94,1.06-.06.26-.13.46-.13.67,0,.8.47,1.13,1.41,1.13.2,0,.66.13,1.39.33.33.13.6.2.86.2s.6-.07,1-.27c.53-.2.86-.34,1.07-.4h0ZM105.58,166.83l-1.6.8c-.67.33-1.47.67-2.33,1.01-1.2.39-1.99.59-2.54.59-.4,0-.86-.07-1.26-.33-.2-.2-.73-.53-1.39-1-.07,0-.2-.13-.47-.33l-3.19.27-.39-1,3.45-.99c-.06-.33-.13-.67-.13-.94,0-1.33.66-2.59,1.87-3.66.46-.4,1.12-.8,2-1.06.27-.07.59-.13.86-.13.67,0,1.2.13,1.59.39.53.27.8.74.8,1.27,0,.14,0,.26-.06.39v.34c-.14.73-.54,1.4-1.21,1.99-.6.6-1.26,1.01-1.99,1.33-.48.2-1.07.34-1.73.4,0,.4.13.74.4,1,.34.26.68.4,1.07.4h1c.27-.06.73-.2,1.46-.53.33-.13.67-.2,1.01-.27.52-.07,1.06-.07,1.59-.07.46,0,.94,0,1.2.13h0ZM101.39,162.31c-.14-.46-.47-.74-1-.74-.34,0-.73.14-1.2.34-.4.33-1,.93-1.86,1.73l.2,1.32c.86-.2,1.73-.53,2.45-.99.14-.13.54-.46,1.21-1.06.2-.2.26-.41.2-.6h0ZM118.7,167.16c-.14.2-.27.33-.33.4-.4.27-.87.4-1.53.4-1.94,0-3.34-.66-4.13-1.86-.34-.07-.59-.07-.8-.07-.47,0-.94.13-1.4.53-.13.06-.46.41-1.13,1-.26.19-.47.27-.8.27-.8-.14-1.19-.6-1.19-1.46l-1.74,1.19-1.32-.4c.2-.26.39-.54.66-.74.2-.13.6-.4,1.06-.73.14-.13.4-.33.8-.67.4-.33.86-.6,1.39-.73l1.54.94,1.39-.87h.73c.86,0,1.86.34,3.13.94.46.33,1.12.65,2.05,1.12.34.13.6.13.8.13.27,0,.39,0,.6-.06q.07,0,.07-.07c-.07,0-.07-.06-.07,0-.07,0-.07.07-.07.13,0,.34.07.47.27.6h0ZM131.4,166.83l-1.6.8c-.65.33-1.46.67-2.38,1.01-1.14.39-1.94.59-2.47.59-.4,0-.86-.07-1.26-.33-.27-.2-.74-.53-1.4-1-.07,0-.2-.13-.46-.33l-3.19.27-.41-1,3.47-.99c-.07-.33-.14-.67-.14-.94,0-1.33.67-2.59,1.87-3.66.46-.4,1.12-.8,2-1.06.27-.07.6-.13.86-.13.68,0,1.21.13,1.6.39.53.27.8.74.8,1.27,0,.14,0,.26-.07.39,0,.13-.06.27-.06.34-.07.73-.47,1.4-1.13,1.99-.6.6-1.27,1.01-2,1.33-.47.2-1.06.34-1.73.4,0,.4.13.74.4,1,.33.26.66.4,1.06.4h1c.26-.06.73-.2,1.46-.53.33-.13.67-.2.93-.27.6-.07,1.13-.07,1.66-.07.47,0,.93,0,1.19.13h0ZM127.21,162.31c-.13-.46-.47-.74-1-.74-.33,0-.74.14-1.2.34-.4.33-1,.93-1.86,1.73l.19,1.32c.87-.2,1.73-.53,2.4-.99.2-.13.6-.46,1.27-1.06.19-.2.25-.41.19-.6h0ZM141.25,167.16c-.06.06-.39.26-.86.52-.46.27-.79.41-.93.41l-4.05.8h-.27c-.13.07-.2.07-.27.07-.66,0-1.32-.2-1.79-.53-.67-.4-.93-.93-.93-1.46s.2-1.01.6-1.41c.13-.06.33-.26.52-.53.28-.27,1.01-.8,2.2-1.59.07,0,.34-.13.87-.39.33-.21.54-.41.66-.6.06-.13,0-.21-.26-.21-.13,0-.27,0-.53.07h-.53c-.34,0-.54-.07-.6-.2l-1.99-.19-1.27-.34-.2-.93,1.27-.14c.27.07.72.14,1.33.14.6.06,1,.13,1.33.13.28.06.74.12,1.34.26.66.07.99.14,1.12.2.19.21.39.41.6.54.2.2.33.33.33.4,0,.27-.21.59-.53.93-.2.14-.39.33-.72.59-.07.07-.54.27-1.47.74-.6.33-1,.67-1.27,1.07,0,.06-.13.2-.33.46-.26.41-.4.73-.4.94,0,.07,0,.13.07.13.13.39.13.59.19.59.06.2.27.26.46.26.13.14.27.14.47.14s.33,0,.47-.14c.06,0,.46-.13,1.12-.33.06-.06.2-.13.34-.2l1.73-.27,1.25-.6c0,.06.2.19.74.47l.2.19h0ZM178.38,152.99c0,.2-.06.39-.33.53l-.92,2.26c-.15.27-.28.66-.41,1.26-.2.74-.53,2.07-1,3.93-.07.07-.2.47-.47,1.13,0,.47-.06.94-.13,1.47l-.2,2.27,1.99-.14.61.73c-.27.2-.87.4-1.8.67-.07,0-.34.07-.66.13-.13.07-.27.13-.4.13-.2,0-.4-.07-.67-.13-.6-.19-.93-.26-.99-.26v-4.26c-1.34,1.46-3.13,2.79-5.39,3.99-.74.47-1.74.67-2.87.67-.6,0-.92-.07-1.06-.07-.27-.13-.4-.39-.47-.87v-.66c0-.6.13-1.06.47-1.47.14-.13.46-.46,1.12-.99,1.14-.94,2.33-1.46,3.46-1.6.34,0,.54-.07.67-.07.33,0,.66.07,1.12.13l.33.93c1.4-.67,2.53-1.81,3.47-3.4.19-.33.39-.86.74-1.59.19-.6.33-1.21.52-1.73.34-1.2.8-2.2,1.26-2.86.08,0,.34-.39.87-1,.07-.07.13-.07.27-.07.6,0,.86.35.86.94h0ZM169.47,163.51c-.07,0-.13,0-.26-.07h-.53c-.13.07-.2.07-.27.07-.73.06-1.33.26-1.93.66-.6,0-1.06.26-1.4.8-.07.2-.14.34-.14.48s0,.26.07.4h.47c.73,0,1.32-.14,1.85-.47.86-.54,1.6-1.2,2.13-1.86h0ZM190.49,166.16l-1.6.87c-.66.33-1.46.66-2.32,1-1.2.4-2,.6-2.53.6-.4,0-.87-.14-1.27-.34-.27-.2-.74-.54-1.4-1-.07-.07-.2-.2-.47-.39l-3.2.26-.4-1,3.46-1c-.07-.33-.13-.59-.13-.87,0-1.39.66-2.59,1.86-3.73.47-.39,1.14-.73,2-.99.26-.14.6-.2.86-.2.67,0,1.2.14,1.59.4.54.33.8.8.8,1.33,0,.07,0,.2-.07.34,0,.2-.07.33-.07.4-.07.66-.46,1.33-1.13,1.99-.6.53-1.27.99-1.99,1.27-.46.2-1.07.33-1.73.46,0,.34.13.67.39,1,.34.27.66.41,1.07.41.33,0,.67,0,1-.07.27,0,.74-.21,1.47-.47.34-.13.65-.26.93-.26.61-.06,1.13-.13,1.67-.13.47,0,.93.07,1.19.13h0ZM186.31,161.64c-.14-.47-.47-.67-1-.67-.34,0-.73.07-1.2.26-.41.41-1,.94-1.86,1.81l.2,1.33c.87-.27,1.73-.6,2.41-1.06.19-.07.59-.39,1.26-1.07.2-.13.27-.33.2-.59h0ZM234.68,161.85l-1.19,1.79c-.07.13-.14.2-.14.26,0,.07.14.27.47.67l-.2.13-.13,1.19-.41.8.53.4-.6.27v.4l.33.27-.13.6.13.73-.13.46.27.27-.27.26.13.79-.33.81.47.33-.14.86.47.8c0,.27-.13.4-.33.4-.07,0-.2-.06-.33-.2-.14-.13-.2-.2-.2-.2l-.2-1.06-.4-.13v-.47l-.39-.87v-.53l-.2-.19.06-.39-.26-.07.14-.34h-.27c0-.13.08-.13.13-.13.07,0,.14,0,.2.06l-.25-.53.19-.46-.14-.4.26-.34-.26-.07c.14-.2.2-.4.2-.6l-.2-1.4.26-.66-.12-.13c-.07-.07-.14-.13-.14-.41-.05-.13-.13-.33-.27-.46l-.33.21c-.2.26-.4.39-.66.53-.27.06-.67.13-1.21.13-.59,0-.99.07-1.2.26l-.34.26-1.27.27-.6.27h-.8l-.53.33-.8-.06-.46.27-.47-.13-.33.34c-.14,0-.33,0-.47-.06-.19-.07-.33-.07-.39-.07-.27,0-.47.07-.6.19-.14-.06-.27-.13-.41-.13-.07,0-.13,0-.2.06l-.13.06-.2-.06-.53.26-.53-.39-.46.26-1.14-.4-.2.14-.4-.21h-.86l-.47-.27-.73-.33-1.39-1.34-.13-1-.4-.46.26-.54-.33-.26.19-.2-.27-.4.14-.13.46-.07v-.4l.32-.53.07.12c.27-.26.47-.59.47-.86l-.07-.21c.54-.06.8-.46.94-1.19l-.27.47c.2-.6.46-.86.73-.86h.06l-.13.2c.2-.07.34-.27.34-.41v-.13l.39-.06-.07.13.2-.07.06-.46.21.13v-.18h.4l.27-.21c.07-.07.2-.27.4-.6l.73-.13c.46-.47.72-.72.72-.87l.53-.19.2-.27.66-.07.54-.53c.39-.06.8-.13,1.13-.34l.07-.2.06.07.34-.19-.06-.07c.19-.13.4-.2.46-.2,0,0,.14,0,.27.07.2-.4.46-.6.73-.6h.74c.19,0,.46-.2.86-.53l.27.07.6-.33.28.07c.13-.13.33-.2.66-.27.26-.06.39-.13.39-.2l.21-.07h.93l.13-.26.46.07.73-.13.06-.13.6.27h.53l.61.46c.26.07.53.2.93.41-.13.53-.54.8-1.32.93l-1.07-.53-.33.13-.61-.2-.4.2-.59-.13-1.07.47-.4-.2c-.74.2-1.2.33-1.33.4-.14.06-.19.13-.27.26-.33.19-.6.33-.86.33-.08,0-.15,0-.27-.07-1.67.87-2.6,1.27-2.87,1.2l-.14.33h-.27l-.34.47-.53.07c-.26.33-.66.6-1.12.8-.47.2-.8.33-.86.47l-.94.79-.53.4-.6.73-1.13.87v.72l-.19.14-.6,1.53v.6c0,.19.13.47.33.66.2.13.34.33.34.53,0,.13,0,.21-.07.21l.46.46.93.47,1,.26h1.2l1.47.27.2-.07.26.07,2.07-.13c.6-.27,1.46-.34,2.52-.4l-.07-.13,1.73-.13v-.13l1.93-.4c.2-.21.66-.41,1.32-.48.67-.06,1.13-.13,1.47-.19l-.06-.27h.2v-.13l.54-.13-.14-.33.41-.41v-.59c-.19-.07-.26-.07-.26-.14.07-.13.13-.33.13-.54s-.06-.4-.13-.6h1.06l.33.27h.34l.53.6.46.07h0ZM250.65,167.3l-.52.53c-.2.2-.61.27-1.14.33-.86.06-1.33.06-1.39.06-.6,0-1.07-.06-1.34-.2-.46-.34-.86-.73-1.06-1.27l-1.94,1.12c-.46.47-1.14.68-1.8.68-.59,0-1.12-.2-1.65-.54-.54-.34-.87-.73-1-1.27-.07-.2-.13-.47-.13-.6,0-.2,0-.33.06-.33l.34-1c.13-.33.66-.8,1.46-1.39.54-.39,1.13-.8,1.67-1.13,1-.6,1.87-.94,2.59-.94.34,0,.66.07,1.14.27.39.13.72.33.99.53.33.27.46.53.46,1,0,.26-.13.59-.39.92l-.6,1.74c.2.46.53.79.99,1.06.27.13.67.13,1.21.13.47,0,.8,0,1.06-.06l1,.33h0ZM244,165.63v-1c-1,0-1.8.33-2.46.93-.13.2-.34.4-.47.73l1,.6,1.93-1.27h0ZM263.89,167.56c-.13.19-.26.33-.34.4-.4.27-.85.4-1.52.4-1.92,0-3.33-.6-4.13-1.86-.33-.07-.53-.07-.8-.07-.46,0-.92.2-1.39.54-.07.06-.47.39-1.13,1.06-.2.13-.47.2-.8.2-.8-.13-1.19-.6-1.19-1.46l-1.73,1.27-1.33-.4c.2-.33.4-.59.67-.8.26-.13.6-.33,1.06-.73.2-.14.47-.34.8-.66.4-.33.86-.54,1.4-.73l1.53.93,1.45-.8h.67c.87,0,1.86.27,3.13.87.46.33,1.13.67,2.06,1.13.33.14.6.2.86.2.2,0,.4-.06.54-.13h.06c0-.07-.06-.07-.06-.07q-.07.07-.07.2c0,.26.07.47.26.53h0ZM274.34,163.51l-.73,1.45h-3.39c-.4,0-.66.14-.87.34l-.4.39c-.13.14-.19.26-.19.47v.26l-.2,2.46h-1l-.33-1.99c-.34,0-.87.13-1.67.33-.4.13-.66.27-.8.33-.13.06-.33.27-.6.53l-.66-.93,1.93-1.47,1.27-.74c.46-.33.74-.66.86-1.12.27-.8.41-1.33.47-1.6.2-.66.33-1.2.4-1.66.13-1.33.73-2.72,1.66-4.19.34-.53.87-1.06,1.47-1.66l.47.68c-.8.59-1.33,1.46-1.73,2.65-.13.47-.2.87-.2,1.33v.4l-.2,3.27c.4,0,1.27.06,2.67.26l1.79.2h0ZM286.79,167.23l-1.66.8c-.6.33-1.4.67-2.33,1-1.13.46-2,.66-2.46.66s-.86-.13-1.26-.4c-.27-.13-.74-.46-1.4-.99-.07,0-.2-.13-.47-.34l-3.26.27-.34-1,3.46-.99c-.13-.34-.13-.67-.13-.93,0-1.34.6-2.54,1.86-3.66.47-.41,1.13-.74,1.94-1.07.33-.07.59-.13.93-.13.66,0,1.2.13,1.6.4.53.34.72.73.72,1.33v.33c-.06.2-.06.26-.06.41-.07.66-.47,1.32-1.14,1.99-.6.54-1.26,1-2,1.27-.52.2-1.06.33-1.72.4,0,.41.13.73.4,1,.26.33.66.47,1.06.47.26,0,.6-.07,1-.07.2,0,.73-.2,1.39-.46.4-.2.74-.27,1.01-.33.53-.07,1.06-.07,1.59-.07s.93.07,1.26.13h0ZM282.53,162.71c-.14-.47-.46-.74-.99-.74-.27,0-.67.13-1.14.33-.41.33-1.06.93-1.87,1.79l.14,1.34c.93-.27,1.73-.61,2.46-1.07.13-.07.53-.47,1.2-1.06.2-.2.27-.39.2-.6Z"/>
            </g>
            <polygon class="cls-6" points="107.51 153.98 108.37 155.19 103.98 158.25 103.12 157.04 107.51 153.98"/>
          </g>
          <g>
            <path class="cls-8" d="M314.72,152.96h4.47l5.76,21.86h-3.64l-1.35-5.36h-6.4l-1.41,5.36h-3.64l6.21-21.86ZM319.38,166.68l-2.51-10.78h-.06l-2.6,10.78h5.17Z"/>
            <path class="cls-8" d="M329.55,152.96h7.71c3.06,0,5.54,1.53,5.54,5.64,0,2.82-1.25,4.99-3.64,5.36v.06c2.17.21,3.31,1.41,3.43,4.47.03,1.41.06,3.12.12,4.43.06,1.08.58,1.6,1.04,1.9h-3.95c-.34-.4-.49-1.07-.58-1.93-.12-1.32-.09-2.54-.15-4.13-.06-2.39-.8-3.43-3.19-3.43h-2.84v9.49h-3.49v-21.86ZM335.83,162.7c2.23,0,3.49-1.35,3.49-3.55,0-2.33-1.01-3.55-3.31-3.55h-2.97v7.1h2.78Z"/>
            <path class="cls-8" d="M359.19,174.52c-.89.52-2.05.73-3.43.73-5.02,0-7.22-3.55-7.22-11.36s2.2-11.35,7.22-11.35,7.22,3.55,7.22,11.35c0,4.04-.73,7.07-1.71,8.66l2.23,2.36-2.08,1.87-2.24-2.26ZM357.36,168.79l1.44,1.44c.49-1.31.71-3.37.71-6.43,0-7.35-1.65-8.63-3.74-8.63s-3.73,1.29-3.73,8.63,1.65,8.81,3.73,8.81c.46,0,.86-.06,1.26-.22l-1.65-1.62,1.99-1.99Z"/>
            <path class="cls-8" d="M372.37,152.96v15.67c0,2.76,1.1,3.98,3.22,3.98s3.18-1.22,3.18-3.98v-15.67h3.49v15.4c0,5.05-2.51,6.89-6.67,6.89s-6.7-1.84-6.7-6.89v-15.4h3.49Z"/>
            <path class="cls-8" d="M388.51,152.96h3.49v21.86h-3.49v-21.86Z"/>
            <path class="cls-8" d="M402.11,155.9h-5.2v-2.94h13.81v2.94h-5.11v18.92h-3.49v-18.92Z"/>
            <path class="cls-8" d="M415.78,152.96h11.82v2.94h-8.32v6.06h7.84v2.94h-7.84v6.98h8.57v2.94h-12.06v-21.86Z"/>
            <path class="cls-8" d="M447.01,166.99v.46c0,3.95-1.59,7.8-6.74,7.8-5.51,0-7.22-3.55-7.22-11.36s1.71-11.35,7.25-11.35c6.22,0,6.58,4.59,6.58,6.86v.4h-3.49v-.37c0-2.02-.61-4.35-3.12-4.25-2.57,0-3.73,1.59-3.73,8.63s1.16,8.81,3.73,8.81c2.91,0,3.25-3.24,3.25-5.26v-.37h3.49Z"/>
            <path class="cls-8" d="M456.11,155.9h-5.21v-2.94h13.81v2.94h-5.11v18.92h-3.49v-18.92Z"/>
            <path class="cls-8" d="M468.35,163.89c0-7.81,2.2-11.35,7.22-11.35s7.22,3.55,7.22,11.35-2.2,11.36-7.22,11.36-7.22-3.55-7.22-11.36ZM479.31,163.8c0-7.35-1.65-8.63-3.74-8.63s-3.73,1.29-3.73,8.63,1.65,8.81,3.73,8.81,3.74-1.28,3.74-8.81Z"/>
            <path class="cls-8" d="M491.65,168.06v.55c0,2.66,1.16,4.01,3.58,4.01,2.21,0,3.31-1.56,3.31-3.18,0-2.3-1.16-3.3-3.12-3.89l-2.39-.83c-3.18-1.22-4.56-2.88-4.56-6,0-3.98,2.7-6.18,6.8-6.18,5.6,0,6.18,3.49,6.18,5.76v.49h-3.49v-.46c0-1.99-.89-3.15-3.06-3.15-1.5,0-2.94.83-2.94,3.15,0,1.87.95,2.81,3.28,3.7l2.36.86c3.09,1.1,4.44,2.79,4.44,5.79,0,4.65-2.82,6.58-7.22,6.58-5.42,0-6.64-3.61-6.64-6.67v-.52h3.49Z"/>
          </g>
        </g>
        <line class="cls-3" x1="539.57" y1="142.43" y2="142.43"/>
        <line class="cls-3" x1="539.57" y1="185.8" y2="185.8"/>
      </g>
    </g>
  </g>
</svg>